<?xml version="1.0" encoding="iso-8859-1"?>
<!-- Generator: Adobe Illustrator 19.0.0, SVG Export Plug-In . SVG Version: 6.00 Build 0)  -->
<svg xmlns="http://www.w3.org/2000/svg" version="1.1" id="Capa_1" x="0px"
     y="0px" viewBox="0 0 460 460" style="enable-background:new 0 0 460 460;" xml:space="preserve" width="512"
     height="512">
<g id="XMLID_995_">
	<path id="XMLID_2063_" style="fill:#59595B;"
          d="M230,0L230,0c16.991,0,31.178,12.956,32.716,29.877L280,220l-60,50v60h-40L230,0z"/>
    <path id="XMLID_2062_" style="fill:#898A8C;"
          d="M280,330h-40v-60l-60-50l17.284-190.123C198.822,12.956,213.009,0,230,0h0L280,330   z"/>
    <path id="XMLID_2061_" style="fill:#525455;"
          d="M240,210c0,5.523-4.477,10-10,10s-10-4.477-10-10s4.477-10,10-10   S240,204.477,240,210z"/>
    <path id="XMLID_500_" style="fill:#A6A9AD;" d="M230,220c-5.523,0-10-4.477-10-10c0-5.523,4.477-10,10-10V220z"/>
    <path id="XMLID_1011_" style="fill:#D66A40;"
          d="M323.16,359.056L282.938,294.7c-1.827-2.924-5.032-4.7-8.48-4.7H240v79.41   c0,3.406-1.894,6.561-4.949,8.065c-3.094,1.523-5.051,4.67-5.051,8.115c0-3.406-1.894-6.561-4.949-8.065   c-3.094-1.523-5.051-4.67-5.051-8.115V290h-34.458c-3.448,0-6.653,1.776-8.48,4.7l-40.222,64.356   c-4.47,7.152-6.84,15.416-6.84,23.85V415c0,24.853,20.147,45,45,45h0c23.22,0,42.332-17.586,44.743-40.166   c0.329-3.081,2.174-5.793,4.945-7.178L230,410l5.311,2.655c2.771,1.385,4.616,4.097,4.945,7.178   C242.668,442.414,261.78,460,285,460h0c24.853,0,45-20.147,45-45v-32.095C330,374.472,327.63,366.208,323.16,359.056z M200,415   c0,13.807-11.193,25-25,25s-25-11.193-25-25v-10c0-13.807,11.193-25,25-25s25,11.193,25,25V415z M310,415c0,13.807-11.193,25-25,25   s-25-11.193-25-25v-10c0-13.807,11.193-25,25-25s25,11.193,25,25V415z"/>
    <path id="XMLID_914_" style="fill:#98482C;"
          d="M323.16,359.056L282.938,294.7c-1.827-2.924-5.032-4.7-8.48-4.7H240l0,79.41   c0,3.406-1.894,6.561-4.949,8.065c-3.094,1.523-5.051,4.67-5.051,8.115V410l5.311,2.655c2.771,1.385,4.616,4.097,4.945,7.178   C242.668,442.414,261.78,460,285,460h0c24.853,0,45-20.147,45-45v-32.095C330,374.472,327.63,366.208,323.16,359.056z M310,415   c0,13.807-11.193,25-25,25s-25-11.193-25-25v-10c0-13.807,11.193-25,25-25s25,11.193,25,25V415z"/>
</g>
</svg>
